<svg xmlns="http://www.w3.org/2000/svg" version="1.1" xmlns:xlink="http://www.w3.org/1999/xlink" xmlns:svgjs="http://svgjs.dev/svgjs" width="2000" height="1500" viewBox="0 0 2000 1500"><rect width="2000" height="1500" fill="#ffffff"></rect><g transform="matrix(0.75,0,0,0.75,249.090909090909,652.9156880267068)"><svg viewBox="0 0 396 51" data-background-color="#ffffff" preserveAspectRatio="xMidYMid meet" height="257" width="2000" xmlns="http://www.w3.org/2000/svg" xmlns:xlink="http://www.w3.org/1999/xlink"><g id="tight-bounds" transform="matrix(1,0,0,1,0.2400000000000091,0.18767787620208765)"><svg viewBox="0 0 395.52 50.62464424759585" height="50.62464424759585" width="395.52"><g><svg viewBox="0 0 604.3143130764665 77.34930499905538" height="50.62464424759585" width="395.52"><g><rect width="5.047351772284785" height="56.24895189873418" x="190.53399854950962" y="10.5501765501606" fill="#6936f5" opacity="1" stroke-width="0" stroke="transparent" fill-opacity="1" class="rect-yte-0" data-fill-palette-color="secondary" rx="1%" id="yte-0" data-palette-color="#6936f5"></rect></g><g transform="matrix(1,0,0,1,208.79431307646664,10.690099316077845)"><svg viewBox="0 0 395.52 55.96910636689969" height="55.96910636689969" width="395.52"><g id="textblocktransform"><svg viewBox="0 0 395.52 55.96910636689969" height="55.96910636689969" width="395.52" id="textblock"><g><svg viewBox="0 0 395.52 55.96910636689969" height="55.96910636689969" width="395.52"><g transform="matrix(1,0,0,1,0,0)"><svg width="395.52" viewBox="2.15 -37 264.63 37.45" height="55.96910636689969" data-palette-color="#6936f5"><path d="M35.7-24.75L30.25-24.75Q28.8-27.8 26.05-29.48 23.3-31.15 19.65-31.15L19.65-31.15Q16-31.15 13.08-29.48 10.15-27.8 8.47-24.68 6.8-21.55 6.8-17.45L6.8-17.45Q6.8-13.35 8.47-10.25 10.15-7.15 13.08-5.48 16-3.8 19.65-3.8L19.65-3.8Q24.75-3.8 28.05-6.85 31.35-9.9 31.9-15.1L31.9-15.1 18-15.1 18-18.8 36.75-18.8 36.75-15.3Q36.35-11 34.05-7.43 31.75-3.85 28-1.78 24.25 0.3 19.65 0.3L19.65 0.3Q14.8 0.3 10.8-1.98 6.8-4.25 4.48-8.3 2.15-12.35 2.15-17.45L2.15-17.45Q2.15-22.55 4.48-26.63 6.8-30.7 10.8-32.98 14.8-35.25 19.65-35.25L19.65-35.25Q25.2-35.25 29.48-32.5 33.75-29.75 35.7-24.75L35.7-24.75ZM41.05-13.8Q41.05-18 42.75-21.18 44.45-24.35 47.42-26.1 50.4-27.85 54.05-27.85L54.05-27.85Q57.65-27.85 60.3-26.3 62.95-24.75 64.25-22.4L64.25-22.4 64.25-27.4 68.85-27.4 68.85 0 64.25 0 64.25-5.1Q62.9-2.7 60.22-1.13 57.55 0.45 54 0.45L54 0.45Q50.35 0.45 47.4-1.35 44.45-3.15 42.75-6.4 41.05-9.65 41.05-13.8L41.05-13.8ZM64.25-13.75Q64.25-16.85 63-19.15 61.75-21.45 59.62-22.68 57.5-23.9 54.95-23.9L54.95-23.9Q52.4-23.9 50.3-22.7 48.2-21.5 46.95-19.2 45.7-16.9 45.7-13.8L45.7-13.8Q45.7-10.65 46.95-8.33 48.2-6 50.3-4.78 52.4-3.55 54.95-3.55L54.95-3.55Q57.5-3.55 59.62-4.78 61.75-6 63-8.33 64.25-10.65 64.25-13.75L64.25-13.75ZM109.5-27.9Q112.7-27.9 115.2-26.58 117.7-25.25 119.15-22.6 120.6-19.95 120.6-16.15L120.6-16.15 120.6 0 116.1 0 116.1-15.5Q116.1-19.6 114.07-21.78 112.05-23.95 108.6-23.95L108.6-23.95Q105.05-23.95 102.95-21.68 100.85-19.4 100.85-15.1L100.85-15.1 100.85 0 96.35 0 96.35-15.5Q96.35-19.6 94.32-21.78 92.3-23.95 88.85-23.95L88.85-23.95Q85.3-23.95 83.2-21.68 81.1-19.4 81.1-15.1L81.1-15.1 81.1 0 76.55 0 76.55-27.4 81.1-27.4 81.1-23.45Q82.45-25.6 84.72-26.75 87-27.9 89.75-27.9L89.75-27.9Q93.2-27.9 95.85-26.35 98.5-24.8 99.8-21.8L99.8-21.8Q100.95-24.7 103.6-26.3 106.25-27.9 109.5-27.9L109.5-27.9ZM153.04-14.75Q153.04-13.45 152.89-12L152.89-12 130.99-12Q131.24-7.95 133.77-5.68 136.29-3.4 139.89-3.4L139.89-3.4Q142.84-3.4 144.82-4.78 146.79-6.15 147.59-8.45L147.59-8.45 152.49-8.45Q151.39-4.5 148.09-2.02 144.79 0.45 139.89 0.45L139.89 0.45Q135.99 0.45 132.92-1.3 129.84-3.05 128.09-6.28 126.34-9.5 126.34-13.75L126.34-13.75Q126.34-18 128.04-21.2 129.74-24.4 132.82-26.13 135.89-27.85 139.89-27.85L139.89-27.85Q143.79-27.85 146.79-26.15 149.79-24.45 151.42-21.48 153.04-18.5 153.04-14.75L153.04-14.75ZM148.34-15.7Q148.34-18.3 147.19-20.18 146.04-22.05 144.07-23.03 142.09-24 139.69-24L139.69-24Q136.24-24 133.82-21.8 131.39-19.6 131.04-15.7L131.04-15.7 148.34-15.7ZM194.69-34.85L199.24-34.85 199.24 0 194.69 0 194.69-15.8 176.94-15.8 176.94 0 172.39 0 172.39-34.85 176.94-34.85 176.94-19.55 194.69-19.55 194.69-34.85ZM226.74-27.4L231.29-27.4 231.29 0 226.74 0 226.74-4.05Q225.44-1.95 223.11-0.78 220.79 0.4 217.99 0.4L217.99 0.4Q214.79 0.4 212.24-0.93 209.69-2.25 208.21-4.9 206.74-7.55 206.74-11.35L206.74-11.35 206.74-27.4 211.24-27.4 211.24-11.95Q211.24-7.9 213.29-5.73 215.34-3.55 218.89-3.55L218.89-3.55Q222.54-3.55 224.64-5.8 226.74-8.05 226.74-12.35L226.74-12.35 226.74-27.4ZM243.53-22.3Q244.93-24.75 247.63-26.3 250.33-27.85 253.78-27.85L253.78-27.85Q257.48-27.85 260.43-26.1 263.38-24.35 265.08-21.18 266.78-18 266.78-13.8L266.78-13.8Q266.78-9.65 265.08-6.4 263.38-3.15 260.41-1.35 257.43 0.45 253.78 0.45L253.78 0.45Q250.23 0.45 247.56-1.1 244.88-2.65 243.53-5.05L243.53-5.05 243.53 0 238.98 0 238.98-37 243.53-37 243.53-22.3ZM262.13-13.8Q262.13-16.9 260.88-19.2 259.63-21.5 257.51-22.7 255.38-23.9 252.83-23.9L252.83-23.9Q250.33-23.9 248.21-22.68 246.08-21.45 244.81-19.13 243.53-16.8 243.53-13.75L243.53-13.75Q243.53-10.65 244.81-8.33 246.08-6 248.21-4.78 250.33-3.55 252.83-3.55L252.83-3.55Q255.38-3.55 257.51-4.78 259.63-6 260.88-8.33 262.13-10.65 262.13-13.8L262.13-13.8Z" opacity="1" transform="matrix(1,0,0,1,0,0)" fill="#6936f5" class="wordmark-text-0" data-fill-palette-color="primary" id="text-0"></path></svg></g></svg></g></svg></g></svg></g><g><svg viewBox="0 0 177.3210357948374 77.34930499905538" height="77.34930499905538" width="177.3210357948374"><g><svg xmlns:dc="http://purl.org/dc/elements/1.1/" xmlns:cc="http://creativecommons.org/ns#" xmlns:rdf="http://www.w3.org/1999/02/22-rdf-syntax-ns#" xmlns:svg="http://www.w3.org/2000/svg" xmlns="http://www.w3.org/2000/svg" xmlns:sodipodi="http://sodipodi.sourceforge.net/DTD/sodipodi-0.dtd" xmlns:inkscape="http://www.inkscape.org/namespaces/inkscape" viewBox="0 0.0002000000000066393 441.619 211.74499999999995" version="1.1" x="8" y="0" id="icon-0" width="161.3210357948374" height="77.34930499905538" class="icon-icon-0" data-fill-palette-color="accent"><g transform="translate(-185.915,-343.8428)" fill="#6936f5" data-fill-palette-color="accent"><path d="M291.825 343.843C233.291 343.843 185.915 391.3 185.915 449.752 185.915 508.202 233.291 555.58 291.825 555.58 322.686 555.58 350.396 542.238 369.658 521.194A0.3 0.3 0 0 0 369.841 521.121C413.503 492.496 443.667 521.121 443.791 521.121 463.095 542.29 490.925 555.588 521.786 555.588 580.196 555.588 627.534 508.17 627.534 449.76S580.196 343.85 521.786 343.85H291.845zM265.529 398.537H300.886V432.114H334.544V467.471H300.886V501.048H265.529V467.47H232.033V432.114H265.529zM489.97 425.561C503.266 425.56 514.08 436.33 514.08 449.751 514.05 463.05 503.266 473.944 489.97 473.944 476.548 473.944 465.777 463.049 465.777 449.752 465.777 436.289 476.548 425.561 489.97 425.561M570.554 425.56C583.851 425.56 594.745 436.33 594.745 449.751 594.785 463.05 583.851 473.944 570.554 473.944 557.256 473.944 546.363 463.049 546.363 449.752 546.363 436.289 557.256 425.561 570.554 425.561" fill="#6936f5" data-fill-palette-color="accent"></path></g></svg></g></svg></g></svg></g><defs></defs></svg><rect width="395.52" height="50.62464424759585" fill="none" stroke="none" visibility="hidden"></rect></g></svg></g></svg>